<?xml version="1.0" encoding="UTF-8" standalone="no"?>
<!DOCTYPE svg PUBLIC "-//W3C//DTD SVG 1.1//EN"
 "http://www.w3.org/Graphics/SVG/1.1/DTD/svg11.dtd">
<!-- Generated by graphviz version 12.2.1 (0)
 -->
<!-- Title: deps Pages: 1 -->
<svg width="1558pt" height="1013pt"
 viewBox="0.00 0.00 1557.50 1013.00" xmlns="http://www.w3.org/2000/svg" xmlns:xlink="http://www.w3.org/1999/xlink">
<g id="graph0" class="graph" transform="scale(1 1) rotate(0) translate(4 1009)">
<title>deps</title>
<polygon fill="white" stroke="none" points="-4,4 -4,-1009 1553.5,-1009 1553.5,4 -4,4"/>
<g id="clust1" class="cluster">
<title>cluster__dicelore_orchestrator</title>
<path fill="white" stroke="#2980b9" stroke-width="2" d="M20,-541C20,-541 450.25,-541 450.25,-541 456.25,-541 462.25,-547 462.25,-553 462.25,-553 462.25,-728 462.25,-728 462.25,-734 456.25,-740 450.25,-740 450.25,-740 20,-740 20,-740 14,-740 8,-734 8,-728 8,-728 8,-553 8,-553 8,-547 14,-541 20,-541"/>
<text text-anchor="middle" x="235.12" y="-722.7" font-family="Helvetica,sans-Serif" font-weight="bold" font-size="14.00">@dicelore/orchestrator</text>
</g>
<g id="clust2" class="cluster">
<title>cluster__dicelore_web</title>
<path fill="white" stroke="#27ae60" stroke-width="2" d="M275.25,-755C275.25,-755 450.25,-755 450.25,-755 456.25,-755 462.25,-761 462.25,-767 462.25,-767 462.25,-985 462.25,-985 462.25,-991 456.25,-997 450.25,-997 450.25,-997 275.25,-997 275.25,-997 269.25,-997 263.25,-991 263.25,-985 263.25,-985 263.25,-767 263.25,-767 263.25,-761 269.25,-755 275.25,-755"/>
<text text-anchor="middle" x="362.75" y="-979.7" font-family="Helvetica,sans-Serif" font-weight="bold" font-size="14.00">@dicelore/web</text>
</g>
<g id="clust3" class="cluster">
<title>cluster__dicelore_core</title>
<path fill="white" stroke="#c0392b" stroke-width="2" d="M394.75,-8C394.75,-8 1529.5,-8 1529.5,-8 1535.5,-8 1541.5,-14 1541.5,-20 1541.5,-20 1541.5,-521 1541.5,-521 1541.5,-527 1535.5,-533 1529.5,-533 1529.5,-533 394.75,-533 394.75,-533 388.75,-533 382.75,-527 382.75,-521 382.75,-521 382.75,-20 382.75,-20 382.75,-14 388.75,-8 394.75,-8"/>
<text text-anchor="middle" x="962.12" y="-515.7" font-family="Helvetica,sans-Serif" font-weight="bold" font-size="14.00">@dicelore/core</text>
</g>
<g id="clust4" class="cluster">
<title>cluster__dicelore_shared</title>
<path fill="white" stroke="#8e44ad" stroke-width="2" d="M509.75,-709C509.75,-709 638.25,-709 638.25,-709 644.25,-709 650.25,-715 650.25,-721 650.25,-721 650.25,-829 650.25,-829 650.25,-835 644.25,-841 638.25,-841 638.25,-841 509.75,-841 509.75,-841 503.75,-841 497.75,-835 497.75,-829 497.75,-829 497.75,-721 497.75,-721 497.75,-715 503.75,-709 509.75,-709"/>
<text text-anchor="middle" x="574" y="-823.7" font-family="Helvetica,sans-Serif" font-weight="bold" font-size="14.00">@dicelore/shared</text>
</g>
<!-- api__dicelore_orchestrator -->
<g id="node1" class="node">
<title>api__dicelore_orchestrator</title>
<polygon fill="#2980b9" stroke="#cccccc" stroke-width="0" points="133.25,-585 16,-585 16,-549 133.25,-549 133.25,-585"/>
<text text-anchor="middle" x="74.62" y="-563.3" font-family="Helvetica,sans-Serif" font-size="11.00" fill="white">◆ orchestrator API</text>
</g>
<!-- _dicelore_orchestrator_root_ -->
<g id="node2" class="node">
<title>_dicelore_orchestrator_root_</title>
<path fill="#f7f7f7" stroke="#cccccc" d="M89.62,-639.25C89.62,-639.25 59.62,-639.25 59.62,-639.25 53.62,-639.25 47.62,-633.25 47.62,-627.25 47.62,-627.25 47.62,-614.75 47.62,-614.75 47.62,-608.75 53.62,-602.75 59.62,-602.75 59.62,-602.75 89.62,-602.75 89.62,-602.75 95.62,-602.75 101.62,-608.75 101.62,-614.75 101.62,-614.75 101.62,-627.25 101.62,-627.25 101.62,-633.25 95.62,-639.25 89.62,-639.25"/>
<text text-anchor="middle" x="74.62" y="-624.8" font-family="Helvetica,sans-Serif" font-size="11.00">(root)</text>
<text text-anchor="middle" x="74.62" y="-611.3" font-family="Helvetica,sans-Serif" font-size="11.00">1 文件</text>
</g>
<!-- _dicelore_orchestratorapi -->
<g id="node3" class="node">
<title>_dicelore_orchestratorapi</title>
<path fill="#f7f7f7" stroke="#cccccc" d="M217.25,-680.25C217.25,-680.25 187.25,-680.25 187.25,-680.25 181.25,-680.25 175.25,-674.25 175.25,-668.25 175.25,-668.25 175.25,-655.75 175.25,-655.75 175.25,-649.75 181.25,-643.75 187.25,-643.75 187.25,-643.75 217.25,-643.75 217.25,-643.75 223.25,-643.75 229.25,-649.75 229.25,-655.75 229.25,-655.75 229.25,-668.25 229.25,-668.25 229.25,-674.25 223.25,-680.25 217.25,-680.25"/>
<text text-anchor="middle" x="202.25" y="-665.8" font-family="Helvetica,sans-Serif" font-size="11.00">api</text>
<text text-anchor="middle" x="202.25" y="-652.3" font-family="Helvetica,sans-Serif" font-size="11.00">4 文件</text>
</g>
<!-- _dicelore_orchestrator_root_&#45;&gt;_dicelore_orchestratorapi -->
<g id="edge6" class="edge">
<title>_dicelore_orchestrator_root_&#45;&gt;_dicelore_orchestratorapi</title>
<path fill="none" stroke="#bbbbbb" d="M101.96,-629.59C119.97,-635.47 144.09,-643.35 164.06,-649.86"/>
<polygon fill="#bbbbbb" stroke="#bbbbbb" points="162.92,-653.17 173.51,-652.95 165.09,-646.52 162.92,-653.17"/>
<text text-anchor="middle" x="154.25" y="-650.27" font-family="Helvetica,sans-Serif" font-size="9.00">4</text>
</g>
<!-- _dicelore_orchestratordice -->
<g id="node4" class="node">
<title>_dicelore_orchestratordice</title>
<path fill="#f7f7f7" stroke="#cccccc" d="M322.88,-585.25C322.88,-585.25 291.12,-585.25 291.12,-585.25 285.12,-585.25 279.12,-579.25 279.12,-573.25 279.12,-573.25 279.12,-560.75 279.12,-560.75 279.12,-554.75 285.12,-548.75 291.12,-548.75 291.12,-548.75 322.88,-548.75 322.88,-548.75 328.88,-548.75 334.88,-554.75 334.88,-560.75 334.88,-560.75 334.88,-573.25 334.88,-573.25 334.88,-579.25 328.88,-585.25 322.88,-585.25"/>
<text text-anchor="middle" x="307" y="-570.8" font-family="Helvetica,sans-Serif" font-size="11.00">dice</text>
<text text-anchor="middle" x="307" y="-557.3" font-family="Helvetica,sans-Serif" font-size="11.00">13 文件</text>
</g>
<!-- _dicelore_orchestrator_root_&#45;&gt;_dicelore_orchestratordice -->
<g id="edge7" class="edge">
<title>_dicelore_orchestrator_root_&#45;&gt;_dicelore_orchestratordice</title>
<path fill="none" stroke="#bbbbbb" d="M102.05,-614.81C142.69,-605.28 220.73,-586.99 267.61,-576"/>
<polygon fill="#bbbbbb" stroke="#bbbbbb" points="268.4,-579.41 277.34,-573.72 266.81,-572.59 268.4,-579.41"/>
<text text-anchor="middle" x="202.25" y="-600.29" font-family="Helvetica,sans-Serif" font-size="9.00">4</text>
</g>
<!-- _dicelore_orchestratorlore -->
<g id="node5" class="node">
<title>_dicelore_orchestratorlore</title>
<path fill="#f7f7f7" stroke="#cccccc" d="M322,-640.25C322,-640.25 292,-640.25 292,-640.25 286,-640.25 280,-634.25 280,-628.25 280,-628.25 280,-615.75 280,-615.75 280,-609.75 286,-603.75 292,-603.75 292,-603.75 322,-603.75 322,-603.75 328,-603.75 334,-609.75 334,-615.75 334,-615.75 334,-628.25 334,-628.25 334,-634.25 328,-640.25 322,-640.25"/>
<text text-anchor="middle" x="307" y="-625.8" font-family="Helvetica,sans-Serif" font-size="11.00">lore</text>
<text text-anchor="middle" x="307" y="-612.3" font-family="Helvetica,sans-Serif" font-size="11.00">2 文件</text>
</g>
<!-- _dicelore_orchestrator_root_&#45;&gt;_dicelore_orchestratorlore -->
<g id="edge8" class="edge">
<title>_dicelore_orchestrator_root_&#45;&gt;_dicelore_orchestratorlore</title>
<path fill="none" stroke="#bbbbbb" d="M102.05,-621.11C142.82,-621.29 221.24,-621.63 268.06,-621.84"/>
<polygon fill="#bbbbbb" stroke="#bbbbbb" points="268,-625.33 278.01,-621.88 268.03,-618.34 268,-625.33"/>
<text text-anchor="middle" x="202.25" y="-624.36" font-family="Helvetica,sans-Serif" font-size="9.00">1</text>
</g>
<!-- _dicelore_orchestratorpkg -->
<g id="node6" class="node">
<title>_dicelore_orchestratorpkg</title>
<path fill="#f7f7f7" stroke="#cccccc" d="M442.25,-694.25C442.25,-694.25 412.25,-694.25 412.25,-694.25 406.25,-694.25 400.25,-688.25 400.25,-682.25 400.25,-682.25 400.25,-669.75 400.25,-669.75 400.25,-663.75 406.25,-657.75 412.25,-657.75 412.25,-657.75 442.25,-657.75 442.25,-657.75 448.25,-657.75 454.25,-663.75 454.25,-669.75 454.25,-669.75 454.25,-682.25 454.25,-682.25 454.25,-688.25 448.25,-694.25 442.25,-694.25"/>
<text text-anchor="middle" x="427.25" y="-679.8" font-family="Helvetica,sans-Serif" font-size="11.00">pkg</text>
<text text-anchor="middle" x="427.25" y="-666.3" font-family="Helvetica,sans-Serif" font-size="11.00">6 文件</text>
</g>
<!-- _dicelore_orchestrator_root_&#45;&gt;_dicelore_orchestratorpkg -->
<g id="edge9" class="edge">
<title>_dicelore_orchestrator_root_&#45;&gt;_dicelore_orchestratorpkg</title>
<path fill="none" stroke="#bbbbbb" d="M95.06,-639.61C113.87,-656.22 144.04,-679.36 175.25,-689 248.35,-711.57 339.07,-697.12 388.97,-685.78"/>
<polygon fill="#bbbbbb" stroke="#bbbbbb" points="389.46,-689.26 398.39,-683.55 387.85,-682.45 389.46,-689.26"/>
<text text-anchor="middle" x="250.25" y="-703.44" font-family="Helvetica,sans-Serif" font-size="9.00">1</text>
</g>
<!-- api__dicelore_core -->
<g id="node12" class="node">
<title>api__dicelore_core</title>
<polygon fill="#c0392b" stroke="#cccccc" stroke-width="0" points="463.75,-317 390.75,-317 390.75,-281 463.75,-281 463.75,-317"/>
<text text-anchor="middle" x="427.25" y="-295.3" font-family="Helvetica,sans-Serif" font-size="11.00" fill="white">◆ core API</text>
</g>
<!-- _dicelore_orchestrator_root_&#45;&gt;api__dicelore_core -->
<g id="edge63" class="edge">
<title>_dicelore_orchestrator_root_&#45;&gt;api__dicelore_core</title>
<path fill="none" stroke="#c0392b" stroke-width="1.8" d="M102.03,-612.57C112.61,-608.25 124.38,-602.14 133.25,-594 218.34,-515.91 176.9,-445.69 263.25,-369 296.41,-339.55 343.85,-321.08 379.01,-310.56"/>
<polygon fill="#c0392b" stroke="#c0392b" stroke-width="1.8" points="372.05,-316.88 380.2,-310.11 369.6,-310.32 372.05,-316.88"/>
<text text-anchor="middle" x="250.25" y="-385.79" font-family="Helvetica,sans-Serif" font-size="9.00">1</text>
</g>
<!-- _dicelore_orchestratorapi&#45;&gt;_dicelore_orchestratordice -->
<g id="edge1" class="edge">
<title>_dicelore_orchestratorapi&#45;&gt;_dicelore_orchestratordice</title>
<path fill="none" stroke="#bbbbbb" d="M217.63,-643.46C229.11,-629.3 246.08,-609.76 263.25,-595 265.37,-593.18 267.61,-591.38 269.92,-589.63"/>
<polygon fill="#bbbbbb" stroke="#bbbbbb" points="271.66,-592.69 277.77,-584.03 267.6,-586.99 271.66,-592.69"/>
<text text-anchor="middle" x="250.25" y="-611.12" font-family="Helvetica,sans-Serif" font-size="9.00">5</text>
</g>
<!-- _dicelore_orchestratorapi&#45;&gt;_dicelore_orchestratorlore -->
<g id="edge3" class="edge">
<title>_dicelore_orchestratorapi&#45;&gt;_dicelore_orchestratorlore</title>
<path fill="none" stroke="#bbbbbb" d="M229.71,-651.7C241.7,-647.03 256.07,-641.44 269.09,-636.37"/>
<polygon fill="#bbbbbb" stroke="#bbbbbb" points="270.17,-639.7 278.22,-632.82 267.63,-633.18 270.17,-639.7"/>
<text text-anchor="middle" x="250.25" y="-647.09" font-family="Helvetica,sans-Serif" font-size="9.00">1</text>
</g>
<!-- _dicelore_orchestratorapi&#45;&gt;_dicelore_orchestratorpkg -->
<g id="edge2" class="edge">
<title>_dicelore_orchestratorapi&#45;&gt;_dicelore_orchestratorpkg</title>
<path fill="none" stroke="#bbbbbb" d="M229.71,-663.66C269.1,-666.13 343.38,-670.8 388.48,-673.63"/>
<polygon fill="#bbbbbb" stroke="#bbbbbb" points="388.12,-677.11 398.32,-674.25 388.56,-670.13 388.12,-677.11"/>
<text text-anchor="middle" x="307" y="-673.32" font-family="Helvetica,sans-Serif" font-size="9.00">4</text>
</g>
<!-- _dicelore_orchestratorapi&#45;&gt;api__dicelore_core -->
<g id="edge57" class="edge">
<title>_dicelore_orchestratorapi&#45;&gt;api__dicelore_core</title>
<path fill="none" stroke="#c0392b" stroke-width="1.8" d="M224.48,-643.48C226.23,-641.41 227.86,-639.24 229.25,-637 255.81,-594.13 242.76,-574.83 263.25,-528.75 304.01,-437.1 309.26,-403.57 374.1,-335"/>
<polygon fill="#c0392b" stroke="#c0392b" stroke-width="1.8" points="376.45,-337.6 380.86,-327.96 371.41,-332.74 376.45,-337.6"/>
<text text-anchor="middle" x="307" y="-531.45" font-family="Helvetica,sans-Serif" font-size="9.00">6</text>
</g>
<!-- api__dicelore_shared -->
<g id="node26" class="node">
<title>api__dicelore_shared</title>
<polygon fill="#8e44ad" stroke="#cccccc" stroke-width="0" points="616.75,-753 530.25,-753 530.25,-717 616.75,-717 616.75,-753"/>
<text text-anchor="middle" x="573.5" y="-731.3" font-family="Helvetica,sans-Serif" font-size="11.00" fill="white">◆ shared API</text>
</g>
<!-- _dicelore_orchestratorapi&#45;&gt;api__dicelore_shared -->
<g id="edge58" class="edge">
<title>_dicelore_orchestratorapi&#45;&gt;api__dicelore_shared</title>
<path fill="none" stroke="#8e44ad" stroke-width="1.8" d="M213.04,-680.73C220.6,-693.08 232.28,-708.35 247.25,-716 287.3,-736.48 403.16,-738.85 485.15,-737.7"/>
<polygon fill="#8e44ad" stroke="#8e44ad" stroke-width="1.8" points="485.09,-741.2 495.03,-737.54 484.97,-734.2 485.09,-741.2"/>
<text text-anchor="middle" x="366.75" y="-738.93" font-family="Helvetica,sans-Serif" font-size="9.00">2</text>
</g>
<!-- _dicelore_orchestratordice&#45;&gt;_dicelore_orchestratorpkg -->
<g id="edge4" class="edge">
<title>_dicelore_orchestratordice&#45;&gt;_dicelore_orchestratorpkg</title>
<path fill="none" stroke="#bbbbbb" d="M331.8,-585.69C335.51,-588.75 339.27,-591.92 342.75,-595 362.59,-612.55 384.01,-633.37 400.19,-649.51"/>
<polygon fill="#bbbbbb" stroke="#bbbbbb" points="397.53,-651.8 407.07,-656.41 402.49,-646.86 397.53,-651.8"/>
<text text-anchor="middle" x="366.75" y="-623.7" font-family="Helvetica,sans-Serif" font-size="9.00">13</text>
</g>
<!-- _dicelore_orchestratordice&#45;&gt;api__dicelore_core -->
<g id="edge59" class="edge">
<title>_dicelore_orchestratordice&#45;&gt;api__dicelore_core</title>
<path fill="none" stroke="#c0392b" stroke-width="1.8" d="M314.96,-548.49C327.66,-514.22 354.93,-438.44 372.75,-373 376.26,-360.1 374.49,-351.79 377.75,-340.86"/>
<polygon fill="#c0392b" stroke="#c0392b" stroke-width="1.8" points="380.88,-342.42 381.67,-331.86 374.47,-339.63 380.88,-342.42"/>
<text text-anchor="middle" x="366.75" y="-413.29" font-family="Helvetica,sans-Serif" font-size="9.00">13</text>
</g>
<!-- _dicelore_orchestratordice&#45;&gt;api__dicelore_shared -->
<g id="edge60" class="edge">
<title>_dicelore_orchestratordice&#45;&gt;api__dicelore_shared</title>
<path fill="none" stroke="#8e44ad" stroke-width="1.8" d="M335.17,-576.46C367.3,-588.28 421.71,-610.33 463.75,-637.75 494.84,-658.03 525.97,-686.96 546.91,-707.99"/>
<polygon fill="#8e44ad" stroke="#8e44ad" stroke-width="1.8" points="535.92,-706.04 546.38,-707.71 539.24,-699.88 535.92,-706.04"/>
<text text-anchor="middle" x="427.25" y="-640.45" font-family="Helvetica,sans-Serif" font-size="9.00">6</text>
</g>
<!-- _dicelore_orchestratorlore&#45;&gt;_dicelore_orchestratorpkg -->
<g id="edge5" class="edge">
<title>_dicelore_orchestratorlore&#45;&gt;_dicelore_orchestratorpkg</title>
<path fill="none" stroke="#bbbbbb" d="M334.24,-633.98C350.55,-641.43 371.74,-651.11 389.68,-659.3"/>
<polygon fill="#bbbbbb" stroke="#bbbbbb" points="388.15,-662.45 398.7,-663.42 391.06,-656.08 388.15,-662.45"/>
<text text-anchor="middle" x="366.75" y="-653.32" font-family="Helvetica,sans-Serif" font-size="9.00">3</text>
</g>
<!-- _dicelore_orchestratorlore&#45;&gt;api__dicelore_core -->
<g id="edge61" class="edge">
<title>_dicelore_orchestratorlore&#45;&gt;api__dicelore_core</title>
<path fill="none" stroke="#c0392b" stroke-width="1.8" d="M334.44,-604.27C337.63,-601.17 340.54,-597.73 342.75,-594 381.4,-528.74 362.3,-501.12 372.75,-426 374.99,-409.89 373,-374.26 379.44,-345.17"/>
<polygon fill="#c0392b" stroke="#c0392b" stroke-width="1.8" points="382.74,-346.38 382.03,-335.81 375.99,-344.52 382.74,-346.38"/>
<text text-anchor="middle" x="366.75" y="-558.19" font-family="Helvetica,sans-Serif" font-size="9.00">2</text>
</g>
<!-- _dicelore_orchestratorpkg&#45;&gt;api__dicelore_shared -->
<g id="edge62" class="edge">
<title>_dicelore_orchestratorpkg&#45;&gt;api__dicelore_shared</title>
<path fill="none" stroke="#8e44ad" stroke-width="1.8" d="M454.71,-686.82C466.87,-691.8 481.97,-697.97 497.26,-704.23"/>
<polygon fill="#8e44ad" stroke="#8e44ad" stroke-width="1.8" points="495.84,-707.43 506.42,-707.97 498.49,-700.95 495.84,-707.43"/>
<text text-anchor="middle" x="484.75" y="-702.92" font-family="Helvetica,sans-Serif" font-size="9.00">2</text>
</g>
<!-- api__dicelore_web -->
<g id="node7" class="node">
<title>api__dicelore_web</title>
<polygon fill="#27ae60" stroke="#cccccc" stroke-width="0" points="342.75,-799 271.25,-799 271.25,-763 342.75,-763 342.75,-799"/>
<text text-anchor="middle" x="307" y="-777.3" font-family="Helvetica,sans-Serif" font-size="11.00" fill="white">◆ web API</text>
</g>
<!-- _dicelore_web_root_ -->
<g id="node8" class="node">
<title>_dicelore_web_root_</title>
<path fill="#f7f7f7" stroke="#cccccc" d="M322,-853.25C322,-853.25 292,-853.25 292,-853.25 286,-853.25 280,-847.25 280,-841.25 280,-841.25 280,-828.75 280,-828.75 280,-822.75 286,-816.75 292,-816.75 292,-816.75 322,-816.75 322,-816.75 328,-816.75 334,-822.75 334,-828.75 334,-828.75 334,-841.25 334,-841.25 334,-847.25 328,-853.25 322,-853.25"/>
<text text-anchor="middle" x="307" y="-838.8" font-family="Helvetica,sans-Serif" font-size="11.00">(root)</text>
<text text-anchor="middle" x="307" y="-825.3" font-family="Helvetica,sans-Serif" font-size="11.00">2 文件</text>
</g>
<!-- _dicelore_webapi -->
<g id="node9" class="node">
<title>_dicelore_webapi</title>
<path fill="#f7f7f7" stroke="#cccccc" d="M442.25,-908.25C442.25,-908.25 412.25,-908.25 412.25,-908.25 406.25,-908.25 400.25,-902.25 400.25,-896.25 400.25,-896.25 400.25,-883.75 400.25,-883.75 400.25,-877.75 406.25,-871.75 412.25,-871.75 412.25,-871.75 442.25,-871.75 442.25,-871.75 448.25,-871.75 454.25,-877.75 454.25,-883.75 454.25,-883.75 454.25,-896.25 454.25,-896.25 454.25,-902.25 448.25,-908.25 442.25,-908.25"/>
<text text-anchor="middle" x="427.25" y="-893.8" font-family="Helvetica,sans-Serif" font-size="11.00">api</text>
<text text-anchor="middle" x="427.25" y="-880.3" font-family="Helvetica,sans-Serif" font-size="11.00">1 文件</text>
</g>
<!-- _dicelore_webapi&#45;&gt;api__dicelore_shared -->
<g id="edge64" class="edge">
<title>_dicelore_webapi&#45;&gt;api__dicelore_shared</title>
<path fill="none" stroke="#8e44ad" stroke-width="1.8" d="M451.34,-871.37C464.16,-859.72 479.2,-843.61 487.75,-826 498.16,-804.55 485.63,-789.97 491.41,-772.98"/>
<polygon fill="#8e44ad" stroke="#8e44ad" stroke-width="1.8" points="494.42,-774.77 496.39,-764.36 488.36,-771.27 494.42,-774.77"/>
<text text-anchor="middle" x="484.75" y="-838.98" font-family="Helvetica,sans-Serif" font-size="9.00">1</text>
</g>
<!-- _dicelore_weblive -->
<g id="node10" class="node">
<title>_dicelore_weblive</title>
<path fill="#f7f7f7" stroke="#cccccc" d="M322,-908.25C322,-908.25 292,-908.25 292,-908.25 286,-908.25 280,-902.25 280,-896.25 280,-896.25 280,-883.75 280,-883.75 280,-877.75 286,-871.75 292,-871.75 292,-871.75 322,-871.75 322,-871.75 328,-871.75 334,-877.75 334,-883.75 334,-883.75 334,-896.25 334,-896.25 334,-902.25 328,-908.25 322,-908.25"/>
<text text-anchor="middle" x="307" y="-893.8" font-family="Helvetica,sans-Serif" font-size="11.00">live</text>
<text text-anchor="middle" x="307" y="-880.3" font-family="Helvetica,sans-Serif" font-size="11.00">1 文件</text>
</g>
<!-- _dicelore_weblive&#45;&gt;_dicelore_webapi -->
<g id="edge10" class="edge">
<title>_dicelore_weblive&#45;&gt;_dicelore_webapi</title>
<path fill="none" stroke="#bbbbbb" d="M334.24,-890C350.24,-890 370.95,-890 388.67,-890"/>
<polygon fill="#bbbbbb" stroke="#bbbbbb" points="388.57,-893.5 398.57,-890 388.57,-886.5 388.57,-893.5"/>
<text text-anchor="middle" x="366.75" y="-892.7" font-family="Helvetica,sans-Serif" font-size="9.00">1</text>
</g>
<!-- _dicelore_weblive&#45;&gt;api__dicelore_shared -->
<g id="edge65" class="edge">
<title>_dicelore_weblive&#45;&gt;api__dicelore_shared</title>
<path fill="none" stroke="#8e44ad" stroke-width="1.8" d="M331.38,-871.42C364.04,-846.09 426.14,-800.19 486.51,-767.87"/>
<polygon fill="#8e44ad" stroke="#8e44ad" stroke-width="1.8" points="488.09,-770.99 495.33,-763.26 484.85,-764.78 488.09,-770.99"/>
<text text-anchor="middle" x="427.25" y="-835.21" font-family="Helvetica,sans-Serif" font-size="9.00">1</text>
</g>
<!-- _dicelore_webshell -->
<g id="node11" class="node">
<title>_dicelore_webshell</title>
<path fill="#f7f7f7" stroke="#cccccc" d="M322,-963.25C322,-963.25 292,-963.25 292,-963.25 286,-963.25 280,-957.25 280,-951.25 280,-951.25 280,-938.75 280,-938.75 280,-932.75 286,-926.75 292,-926.75 292,-926.75 322,-926.75 322,-926.75 328,-926.75 334,-932.75 334,-938.75 334,-938.75 334,-951.25 334,-951.25 334,-957.25 328,-963.25 322,-963.25"/>
<text text-anchor="middle" x="307" y="-948.8" font-family="Helvetica,sans-Serif" font-size="11.00">shell</text>
<text text-anchor="middle" x="307" y="-935.3" font-family="Helvetica,sans-Serif" font-size="11.00">1 文件</text>
</g>
<!-- _dicelore_webshell&#45;&gt;_dicelore_webapi -->
<g id="edge11" class="edge">
<title>_dicelore_webshell&#45;&gt;_dicelore_webapi</title>
<path fill="none" stroke="#bbbbbb" d="M334.24,-932.79C350.55,-925.21 371.74,-915.35 389.68,-907.01"/>
<polygon fill="#bbbbbb" stroke="#bbbbbb" points="391.12,-910.2 398.71,-902.81 388.16,-903.85 391.12,-910.2"/>
<text text-anchor="middle" x="366.75" y="-921.85" font-family="Helvetica,sans-Serif" font-size="9.00">1</text>
</g>
<!-- _dicelore_core_root_ -->
<g id="node13" class="node">
<title>_dicelore_core_root_</title>
<path fill="#f7f7f7" stroke="#cccccc" d="M442.25,-371.25C442.25,-371.25 412.25,-371.25 412.25,-371.25 406.25,-371.25 400.25,-365.25 400.25,-359.25 400.25,-359.25 400.25,-346.75 400.25,-346.75 400.25,-340.75 406.25,-334.75 412.25,-334.75 412.25,-334.75 442.25,-334.75 442.25,-334.75 448.25,-334.75 454.25,-340.75 454.25,-346.75 454.25,-346.75 454.25,-359.25 454.25,-359.25 454.25,-365.25 448.25,-371.25 442.25,-371.25"/>
<text text-anchor="middle" x="427.25" y="-356.8" font-family="Helvetica,sans-Serif" font-size="11.00">(root)</text>
<text text-anchor="middle" x="427.25" y="-343.3" font-family="Helvetica,sans-Serif" font-size="11.00">4 文件</text>
</g>
<!-- _dicelore_coreadapter -->
<g id="node14" class="node">
<title>_dicelore_coreadapter</title>
<path fill="#f7f7f7" stroke="#cccccc" d="M707,-112.25C707,-112.25 672.25,-112.25 672.25,-112.25 666.25,-112.25 660.25,-106.25 660.25,-100.25 660.25,-100.25 660.25,-87.75 660.25,-87.75 660.25,-81.75 666.25,-75.75 672.25,-75.75 672.25,-75.75 707,-75.75 707,-75.75 713,-75.75 719,-81.75 719,-87.75 719,-87.75 719,-100.25 719,-100.25 719,-106.25 713,-112.25 707,-112.25"/>
<text text-anchor="middle" x="689.62" y="-97.8" font-family="Helvetica,sans-Serif" font-size="11.00">adapter</text>
<text text-anchor="middle" x="689.62" y="-84.3" font-family="Helvetica,sans-Serif" font-size="11.00">9 文件</text>
</g>
<!-- _dicelore_core_root_&#45;&gt;_dicelore_coreadapter -->
<g id="edge23" class="edge">
<title>_dicelore_core_root_&#45;&gt;_dicelore_coreadapter</title>
<path fill="none" stroke="#bbbbbb" d="M454.52,-337.23C458.16,-333.96 461.43,-330.21 463.75,-326 486.16,-285.31 449.37,-151.05 481.75,-117.75 504.13,-94.74 594.99,-92.22 648.57,-92.84"/>
<polygon fill="#bbbbbb" stroke="#bbbbbb" points="648.47,-96.34 658.53,-93 648.59,-89.34 648.47,-96.34"/>
<text text-anchor="middle" x="484.75" y="-120.45" font-family="Helvetica,sans-Serif" font-size="9.00">3</text>
</g>
<!-- _dicelore_corebuild -->
<g id="node15" class="node">
<title>_dicelore_corebuild</title>
<path fill="#f7f7f7" stroke="#cccccc" d="M779,-334.25C779,-334.25 749,-334.25 749,-334.25 743,-334.25 737,-328.25 737,-322.25 737,-322.25 737,-309.75 737,-309.75 737,-303.75 743,-297.75 749,-297.75 749,-297.75 779,-297.75 779,-297.75 785,-297.75 791,-303.75 791,-309.75 791,-309.75 791,-322.25 791,-322.25 791,-328.25 785,-334.25 779,-334.25"/>
<text text-anchor="middle" x="764" y="-319.8" font-family="Helvetica,sans-Serif" font-size="11.00">build</text>
<text text-anchor="middle" x="764" y="-306.3" font-family="Helvetica,sans-Serif" font-size="11.00">7 文件</text>
</g>
<!-- _dicelore_core_root_&#45;&gt;_dicelore_corebuild -->
<g id="edge38" class="edge">
<title>_dicelore_core_root_&#45;&gt;_dicelore_corebuild</title>
<path fill="none" stroke="#bbbbbb" d="M454.47,-345.88C467.41,-342.62 483.3,-338.99 497.75,-336.75 578.42,-324.24 674.13,-319.11 725.66,-317.14"/>
<polygon fill="#bbbbbb" stroke="#bbbbbb" points="725.49,-320.65 735.36,-316.79 725.24,-313.65 725.49,-320.65"/>
<text text-anchor="middle" x="573.5" y="-339.45" font-family="Helvetica,sans-Serif" font-size="9.00">2</text>
</g>
<!-- _dicelore_corecatalog -->
<g id="node16" class="node">
<title>_dicelore_corecatalog</title>
<path fill="#f7f7f7" stroke="#cccccc" d="M929.5,-266.25C929.5,-266.25 897,-266.25 897,-266.25 891,-266.25 885,-260.25 885,-254.25 885,-254.25 885,-241.75 885,-241.75 885,-235.75 891,-229.75 897,-229.75 897,-229.75 929.5,-229.75 929.5,-229.75 935.5,-229.75 941.5,-235.75 941.5,-241.75 941.5,-241.75 941.5,-254.25 941.5,-254.25 941.5,-260.25 935.5,-266.25 929.5,-266.25"/>
<text text-anchor="middle" x="913.25" y="-251.8" font-family="Helvetica,sans-Serif" font-size="11.00">catalog</text>
<text text-anchor="middle" x="913.25" y="-238.3" font-family="Helvetica,sans-Serif" font-size="11.00">6 文件</text>
</g>
<!-- _dicelore_core_root_&#45;&gt;_dicelore_corecatalog -->
<g id="edge37" class="edge">
<title>_dicelore_core_root_&#45;&gt;_dicelore_corecatalog</title>
<path fill="none" stroke="#bbbbbb" d="M454.59,-335.63C457.95,-332.68 461.12,-329.45 463.75,-326 488.39,-293.62 465.91,-266.34 497.75,-241 552.19,-197.67 739.45,-209.04 809,-207 834.77,-206.24 842.95,-197.72 867,-207 875.35,-210.22 883.11,-215.77 889.76,-221.77"/>
<polygon fill="#bbbbbb" stroke="#bbbbbb" points="886.9,-223.86 896.48,-228.39 891.82,-218.88 886.9,-223.86"/>
<text text-anchor="middle" x="689.62" y="-210.65" font-family="Helvetica,sans-Serif" font-size="9.00">3</text>
</g>
<!-- _dicelore_coreeval -->
<g id="node18" class="node">
<title>_dicelore_coreeval</title>
<path fill="#f7f7f7" stroke="#cccccc" d="M588.5,-286.25C588.5,-286.25 558.5,-286.25 558.5,-286.25 552.5,-286.25 546.5,-280.25 546.5,-274.25 546.5,-274.25 546.5,-261.75 546.5,-261.75 546.5,-255.75 552.5,-249.75 558.5,-249.75 558.5,-249.75 588.5,-249.75 588.5,-249.75 594.5,-249.75 600.5,-255.75 600.5,-261.75 600.5,-261.75 600.5,-274.25 600.5,-274.25 600.5,-280.25 594.5,-286.25 588.5,-286.25"/>
<text text-anchor="middle" x="573.5" y="-271.8" font-family="Helvetica,sans-Serif" font-size="11.00">eval</text>
<text text-anchor="middle" x="573.5" y="-258.3" font-family="Helvetica,sans-Serif" font-size="11.00">4 文件</text>
</g>
<!-- _dicelore_core_root_&#45;&gt;_dicelore_coreeval -->
<g id="edge36" class="edge">
<title>_dicelore_core_root_&#45;&gt;_dicelore_coreeval</title>
<path fill="none" stroke="#bbbbbb" d="M453.95,-334.4C457.33,-331.69 460.68,-328.84 463.75,-326 472.58,-317.82 471.94,-312.74 481.75,-305.75 497.94,-294.21 518.18,-285.36 535.44,-279.14"/>
<polygon fill="#bbbbbb" stroke="#bbbbbb" points="536.52,-282.47 544.85,-275.92 534.25,-275.84 536.52,-282.47"/>
<text text-anchor="middle" x="484.75" y="-308.45" font-family="Helvetica,sans-Serif" font-size="9.00">1</text>
</g>
<!-- _dicelore_coremcp -->
<g id="node20" class="node">
<title>_dicelore_coremcp</title>
<path fill="#f7f7f7" stroke="#cccccc" d="M1230.25,-287.25C1230.25,-287.25 1198.5,-287.25 1198.5,-287.25 1192.5,-287.25 1186.5,-281.25 1186.5,-275.25 1186.5,-275.25 1186.5,-262.75 1186.5,-262.75 1186.5,-256.75 1192.5,-250.75 1198.5,-250.75 1198.5,-250.75 1230.25,-250.75 1230.25,-250.75 1236.25,-250.75 1242.25,-256.75 1242.25,-262.75 1242.25,-262.75 1242.25,-275.25 1242.25,-275.25 1242.25,-281.25 1236.25,-287.25 1230.25,-287.25"/>
<text text-anchor="middle" x="1214.38" y="-272.8" font-family="Helvetica,sans-Serif" font-size="11.00">mcp</text>
<text text-anchor="middle" x="1214.38" y="-259.3" font-family="Helvetica,sans-Serif" font-size="11.00">20 文件</text>
</g>
<!-- _dicelore_core_root_&#45;&gt;_dicelore_coremcp -->
<g id="edge33" class="edge">
<title>_dicelore_core_root_&#45;&gt;_dicelore_coremcp</title>
<path fill="none" stroke="#bbbbbb" d="M454.73,-336.3C458.16,-333.22 461.31,-329.77 463.75,-326 493.84,-279.44 452.46,-237.97 497.75,-206 514.51,-194.17 846.49,-198.41 867,-199 913.5,-200.33 925.96,-195.48 971.5,-205 1014.07,-213.9 1021.41,-227.15 1063.25,-239 1073.89,-242.01 1134.17,-253.79 1175.03,-261.66"/>
<polygon fill="#bbbbbb" stroke="#bbbbbb" points="1174.27,-265.08 1184.75,-263.53 1175.6,-258.21 1174.27,-265.08"/>
<text text-anchor="middle" x="913.25" y="-202.79" font-family="Helvetica,sans-Serif" font-size="9.00">4</text>
</g>
<!-- _dicelore_corepresent -->
<g id="node21" class="node">
<title>_dicelore_corepresent</title>
<path fill="#f7f7f7" stroke="#cccccc" d="M855,-163.25C855,-163.25 821,-163.25 821,-163.25 815,-163.25 809,-157.25 809,-151.25 809,-151.25 809,-138.75 809,-138.75 809,-132.75 815,-126.75 821,-126.75 821,-126.75 855,-126.75 855,-126.75 861,-126.75 867,-132.75 867,-138.75 867,-138.75 867,-151.25 867,-151.25 867,-157.25 861,-163.25 855,-163.25"/>
<text text-anchor="middle" x="838" y="-148.8" font-family="Helvetica,sans-Serif" font-size="11.00">present</text>
<text text-anchor="middle" x="838" y="-135.3" font-family="Helvetica,sans-Serif" font-size="11.00">3 文件</text>
</g>
<!-- _dicelore_core_root_&#45;&gt;_dicelore_corepresent -->
<g id="edge34" class="edge">
<title>_dicelore_core_root_&#45;&gt;_dicelore_corepresent</title>
<path fill="none" stroke="#bbbbbb" d="M454.69,-336.81C458.21,-333.62 461.41,-330.01 463.75,-326 496.34,-270.26 437.21,-207.21 497.75,-184.75 620.53,-139.2 661.85,-177.67 791,-156 793.19,-155.63 795.42,-155.22 797.68,-154.78"/>
<polygon fill="#bbbbbb" stroke="#bbbbbb" points="798.39,-158.21 807.43,-152.68 796.91,-151.36 798.39,-158.21"/>
<text text-anchor="middle" x="573.5" y="-187.45" font-family="Helvetica,sans-Serif" font-size="9.00">1</text>
</g>
<!-- _dicelore_coreresolve -->
<g id="node22" class="node">
<title>_dicelore_coreresolve</title>
<path fill="#f7f7f7" stroke="#cccccc" d="M1329.12,-288.25C1329.12,-288.25 1296.62,-288.25 1296.62,-288.25 1290.62,-288.25 1284.62,-282.25 1284.62,-276.25 1284.62,-276.25 1284.62,-263.75 1284.62,-263.75 1284.62,-257.75 1290.62,-251.75 1296.62,-251.75 1296.62,-251.75 1329.12,-251.75 1329.12,-251.75 1335.12,-251.75 1341.12,-257.75 1341.12,-263.75 1341.12,-263.75 1341.12,-276.25 1341.12,-276.25 1341.12,-282.25 1335.12,-288.25 1329.12,-288.25"/>
<text text-anchor="middle" x="1312.88" y="-273.8" font-family="Helvetica,sans-Serif" font-size="11.00">resolve</text>
<text text-anchor="middle" x="1312.88" y="-260.3" font-family="Helvetica,sans-Serif" font-size="11.00">3 文件</text>
</g>
<!-- _dicelore_core_root_&#45;&gt;_dicelore_coreresolve -->
<g id="edge35" class="edge">
<title>_dicelore_core_root_&#45;&gt;_dicelore_coreresolve</title>
<path fill="none" stroke="#bbbbbb" d="M433.87,-371.69C441.26,-392.83 456.37,-426.58 481.75,-444 515.45,-467.14 531.62,-459 572.5,-459 572.5,-459 572.5,-459 839,-459 843.6,-459 1164.39,-431.06 1168.5,-429 1226.99,-399.74 1272.81,-335.58 1295.74,-298.33"/>
<polygon fill="#bbbbbb" stroke="#bbbbbb" points="1298.67,-300.26 1300.82,-289.88 1292.67,-296.65 1298.67,-300.26"/>
<text text-anchor="middle" x="965.5" y="-451.3" font-family="Helvetica,sans-Serif" font-size="9.00">1</text>
</g>
<!-- _dicelore_coresession -->
<g id="node23" class="node">
<title>_dicelore_coresession</title>
<path fill="#f7f7f7" stroke="#cccccc" d="M1329.5,-62.25C1329.5,-62.25 1296.25,-62.25 1296.25,-62.25 1290.25,-62.25 1284.25,-56.25 1284.25,-50.25 1284.25,-50.25 1284.25,-37.75 1284.25,-37.75 1284.25,-31.75 1290.25,-25.75 1296.25,-25.75 1296.25,-25.75 1329.5,-25.75 1329.5,-25.75 1335.5,-25.75 1341.5,-31.75 1341.5,-37.75 1341.5,-37.75 1341.5,-50.25 1341.5,-50.25 1341.5,-56.25 1335.5,-62.25 1329.5,-62.25"/>
<text text-anchor="middle" x="1312.88" y="-47.8" font-family="Helvetica,sans-Serif" font-size="11.00">session</text>
<text text-anchor="middle" x="1312.88" y="-34.3" font-family="Helvetica,sans-Serif" font-size="11.00">1 文件</text>
</g>
<!-- _dicelore_core_root_&#45;&gt;_dicelore_coresession -->
<g id="edge22" class="edge">
<title>_dicelore_core_root_&#45;&gt;_dicelore_coresession</title>
<path fill="none" stroke="#bbbbbb" d="M454.59,-337.26C458.21,-333.99 461.47,-330.23 463.75,-326 491.45,-274.63 464.85,-119.86 481.75,-64 494.91,-20.53 527.08,-17 572.5,-17 572.5,-17 572.5,-17 839,-17 939.57,-17 964.68,-21 1065.25,-21 1065.25,-21 1065.25,-21 1215.38,-21 1234.73,-21 1255.69,-25.43 1273.11,-30.41"/>
<polygon fill="#bbbbbb" stroke="#bbbbbb" points="1271.97,-33.72 1282.55,-33.27 1274,-27.02 1271.97,-33.72"/>
<text text-anchor="middle" x="965.5" y="-22.29" font-family="Helvetica,sans-Serif" font-size="9.00">2</text>
</g>
<!-- _dicelore_corestore -->
<g id="node24" class="node">
<title>_dicelore_corestore</title>
<path fill="#f7f7f7" stroke="#cccccc" d="M1033.25,-173.25C1033.25,-173.25 1001.5,-173.25 1001.5,-173.25 995.5,-173.25 989.5,-167.25 989.5,-161.25 989.5,-161.25 989.5,-148.75 989.5,-148.75 989.5,-142.75 995.5,-136.75 1001.5,-136.75 1001.5,-136.75 1033.25,-136.75 1033.25,-136.75 1039.25,-136.75 1045.25,-142.75 1045.25,-148.75 1045.25,-148.75 1045.25,-161.25 1045.25,-161.25 1045.25,-167.25 1039.25,-173.25 1033.25,-173.25"/>
<text text-anchor="middle" x="1017.38" y="-158.8" font-family="Helvetica,sans-Serif" font-size="11.00">store</text>
<text text-anchor="middle" x="1017.38" y="-145.3" font-family="Helvetica,sans-Serif" font-size="11.00">22 文件</text>
</g>
<!-- _dicelore_core_root_&#45;&gt;_dicelore_corestore -->
<g id="edge31" class="edge">
<title>_dicelore_core_root_&#45;&gt;_dicelore_corestore</title>
<path fill="none" stroke="#bbbbbb" d="M454.72,-336.83C458.24,-333.64 461.42,-330.02 463.75,-326 502.1,-259.67 434.12,-199.68 497.75,-157 531.98,-134.04 826.04,-116.4 867,-121 905.44,-125.32 948.4,-135.7 978.36,-143.87"/>
<polygon fill="#bbbbbb" stroke="#bbbbbb" points="977.13,-147.16 987.7,-146.46 979,-140.41 977.13,-147.16"/>
<text text-anchor="middle" x="764" y="-127.23" font-family="Helvetica,sans-Serif" font-size="9.00">9</text>
</g>
<!-- _dicelore_coretoolgen -->
<g id="node25" class="node">
<title>_dicelore_coretoolgen</title>
<path fill="#f7f7f7" stroke="#cccccc" d="M1132.5,-328.25C1132.5,-328.25 1099.25,-328.25 1099.25,-328.25 1093.25,-328.25 1087.25,-322.25 1087.25,-316.25 1087.25,-316.25 1087.25,-303.75 1087.25,-303.75 1087.25,-297.75 1093.25,-291.75 1099.25,-291.75 1099.25,-291.75 1132.5,-291.75 1132.5,-291.75 1138.5,-291.75 1144.5,-297.75 1144.5,-303.75 1144.5,-303.75 1144.5,-316.25 1144.5,-316.25 1144.5,-322.25 1138.5,-328.25 1132.5,-328.25"/>
<text text-anchor="middle" x="1115.88" y="-313.8" font-family="Helvetica,sans-Serif" font-size="11.00">toolgen</text>
<text text-anchor="middle" x="1115.88" y="-300.3" font-family="Helvetica,sans-Serif" font-size="11.00">7 文件</text>
</g>
<!-- _dicelore_core_root_&#45;&gt;_dicelore_coretoolgen -->
<g id="edge32" class="edge">
<title>_dicelore_core_root_&#45;&gt;_dicelore_coretoolgen</title>
<path fill="none" stroke="#bbbbbb" d="M454.57,-355.64C560.59,-365.89 956.07,-400.07 1069.25,-352 1077.61,-348.45 1085.42,-342.68 1092.13,-336.53"/>
<polygon fill="#bbbbbb" stroke="#bbbbbb" points="1094.31,-339.3 1098.92,-329.76 1089.37,-334.34 1094.31,-339.3"/>
<text text-anchor="middle" x="838" y="-379.71" font-family="Helvetica,sans-Serif" font-size="9.00">1</text>
</g>
<!-- _dicelore_coreadapter&#45;&gt;_dicelore_core_root_ -->
<g id="edge13" class="edge">
<title>_dicelore_coreadapter&#45;&gt;_dicelore_core_root_</title>
<path fill="none" stroke="#bbbbbb" d="M659.86,-87.26C609.16,-76.15 506.86,-57.41 481.75,-80.75 441.72,-117.95 489.8,-277.96 463.75,-326 463.25,-326.92 462.7,-327.82 462.11,-328.7"/>
<polygon fill="#bbbbbb" stroke="#bbbbbb" points="459.56,-326.31 455.57,-336.12 464.81,-330.94 459.56,-326.31"/>
<text text-anchor="middle" x="484.75" y="-83.45" font-family="Helvetica,sans-Serif" font-size="9.00">2</text>
</g>
<!-- _dicelore_coreadapter&#45;&gt;_dicelore_coresession -->
<g id="edge12" class="edge">
<title>_dicelore_coreadapter&#45;&gt;_dicelore_coresession</title>
<path fill="none" stroke="#bbbbbb" d="M719.06,-90.8C724.99,-90.17 731.19,-89.54 737,-89 938.25,-70.28 1179.64,-53.1 1272.67,-46.67"/>
<polygon fill="#bbbbbb" stroke="#bbbbbb" points="1272.79,-50.17 1282.52,-45.99 1272.31,-43.19 1272.79,-50.17"/>
<text text-anchor="middle" x="1017.38" y="-70.18" font-family="Helvetica,sans-Serif" font-size="9.00">6</text>
</g>
<!-- _dicelore_coreadapter&#45;&gt;_dicelore_corestore -->
<g id="edge14" class="edge">
<title>_dicelore_coreadapter&#45;&gt;_dicelore_corestore</title>
<path fill="none" stroke="#bbbbbb" d="M719.32,-93.08C788.65,-90.96 960.45,-86.3 971.5,-92 985.63,-99.28 996.28,-113.3 1003.66,-126.26"/>
<polygon fill="#bbbbbb" stroke="#bbbbbb" points="1000.46,-127.69 1008.18,-134.95 1006.67,-124.46 1000.46,-127.69"/>
<text text-anchor="middle" x="838" y="-93.34" font-family="Helvetica,sans-Serif" font-size="9.00">7</text>
</g>
<!-- _dicelore_corebuild&#45;&gt;_dicelore_corecatalog -->
<g id="edge15" class="edge">
<title>_dicelore_corebuild&#45;&gt;_dicelore_corecatalog</title>
<path fill="none" stroke="#bbbbbb" d="M779.86,-297.39C789.74,-285.49 802.12,-271.6 809,-267.75 828.57,-256.8 853.14,-251.81 873.41,-249.58"/>
<polygon fill="#bbbbbb" stroke="#bbbbbb" points="873.61,-253.08 883.26,-248.7 872.99,-246.11 873.61,-253.08"/>
<text text-anchor="middle" x="838" y="-270.45" font-family="Helvetica,sans-Serif" font-size="9.00">5</text>
</g>
<!-- _dicelore_corebuild&#45;&gt;_dicelore_corestore -->
<g id="edge17" class="edge">
<title>_dicelore_corebuild&#45;&gt;_dicelore_corestore</title>
<path fill="none" stroke="#bbbbbb" d="M791.42,-320.03C840.73,-326.93 944.27,-338.34 971.5,-317 976.81,-312.84 997.86,-230.18 1009.14,-184.58"/>
<polygon fill="#bbbbbb" stroke="#bbbbbb" points="1012.49,-185.61 1011.49,-175.06 1005.7,-183.94 1012.49,-185.61"/>
<text text-anchor="middle" x="913.25" y="-332.02" font-family="Helvetica,sans-Serif" font-size="9.00">3</text>
</g>
<!-- _dicelore_corebuild&#45;&gt;_dicelore_coretoolgen -->
<g id="edge16" class="edge">
<title>_dicelore_corebuild&#45;&gt;_dicelore_coretoolgen</title>
<path fill="none" stroke="#bbbbbb" d="M791.3,-315.55C852.27,-314.5 1003.54,-311.91 1075.56,-310.67"/>
<polygon fill="#bbbbbb" stroke="#bbbbbb" points="1075.37,-314.18 1085.31,-310.51 1075.25,-307.18 1075.37,-314.18"/>
<text text-anchor="middle" x="965.5" y="-315.35" font-family="Helvetica,sans-Serif" font-size="9.00">1</text>
</g>
<!-- _dicelore_corecatalog&#45;&gt;_dicelore_corebuild -->
<g id="edge19" class="edge">
<title>_dicelore_corecatalog&#45;&gt;_dicelore_corebuild</title>
<path fill="none" stroke="#bbbbbb" d="M887.58,-266.55C881.09,-270.97 873.95,-275.43 867,-279 855.3,-285.01 826.02,-295.47 801.82,-303.74"/>
<polygon fill="#bbbbbb" stroke="#bbbbbb" points="800.92,-300.35 792.57,-306.87 803.17,-306.97 800.92,-300.35"/>
<text text-anchor="middle" x="838" y="-303.38" font-family="Helvetica,sans-Serif" font-size="9.00">1</text>
</g>
<!-- _dicelore_corecatalog&#45;&gt;_dicelore_coremcp -->
<g id="edge21" class="edge">
<title>_dicelore_corecatalog&#45;&gt;_dicelore_coremcp</title>
<path fill="none" stroke="#bbbbbb" d="M941.85,-249.94C995.41,-253.7 1113.53,-261.99 1174.81,-266.29"/>
<polygon fill="#bbbbbb" stroke="#bbbbbb" points="1174.54,-269.78 1184.76,-266.99 1175.03,-262.8 1174.54,-269.78"/>
<text text-anchor="middle" x="1066.25" y="-261.44" font-family="Helvetica,sans-Serif" font-size="9.00">1</text>
</g>
<!-- _dicelore_corecatalog&#45;&gt;_dicelore_corestore -->
<g id="edge18" class="edge">
<title>_dicelore_corecatalog&#45;&gt;_dicelore_corestore</title>
<path fill="none" stroke="#bbbbbb" d="M941.91,-231.41C951.7,-224.96 962.51,-217.17 971.5,-209 980.2,-201.09 988.72,-191.47 995.96,-182.56"/>
<polygon fill="#bbbbbb" stroke="#bbbbbb" points="998.62,-184.83 1002.05,-174.81 993.12,-180.51 998.62,-184.83"/>
<text text-anchor="middle" x="965.5" y="-221.39" font-family="Helvetica,sans-Serif" font-size="9.00">10</text>
</g>
<!-- _dicelore_corecatalog&#45;&gt;_dicelore_coretoolgen -->
<g id="edge20" class="edge">
<title>_dicelore_corecatalog&#45;&gt;_dicelore_coretoolgen</title>
<path fill="none" stroke="#bbbbbb" d="M941.73,-256.49C976.47,-267.23 1036.52,-285.79 1075.97,-297.98"/>
<polygon fill="#bbbbbb" stroke="#bbbbbb" points="1074.73,-301.26 1085.32,-300.87 1076.8,-294.57 1074.73,-301.26"/>
<text text-anchor="middle" x="1017.38" y="-290.88" font-family="Helvetica,sans-Serif" font-size="9.00">1</text>
</g>
<!-- _dicelore_coredice -->
<g id="node17" class="node">
<title>_dicelore_coredice</title>
<path fill="#f7f7f7" stroke="#cccccc" d="M1521.5,-274.25C1521.5,-274.25 1491.5,-274.25 1491.5,-274.25 1485.5,-274.25 1479.5,-268.25 1479.5,-262.25 1479.5,-262.25 1479.5,-249.75 1479.5,-249.75 1479.5,-243.75 1485.5,-237.75 1491.5,-237.75 1491.5,-237.75 1521.5,-237.75 1521.5,-237.75 1527.5,-237.75 1533.5,-243.75 1533.5,-249.75 1533.5,-249.75 1533.5,-262.25 1533.5,-262.25 1533.5,-268.25 1527.5,-274.25 1521.5,-274.25"/>
<text text-anchor="middle" x="1506.5" y="-259.8" font-family="Helvetica,sans-Serif" font-size="11.00">dice</text>
<text text-anchor="middle" x="1506.5" y="-246.3" font-family="Helvetica,sans-Serif" font-size="11.00">1 文件</text>
</g>
<!-- _dicelore_coredice&#45;&gt;_dicelore_core_root_ -->
<g id="edge24" class="edge">
<title>_dicelore_coredice&#45;&gt;_dicelore_core_root_</title>
<path fill="none" stroke="#bbbbbb" d="M1506.3,-274.59C1507.62,-329.65 1503.41,-488 1411.5,-488 1114.88,-488 1114.88,-488 1114.88,-488 1025.57,-488 1003.55,-499 914.25,-499 572.5,-499 572.5,-499 572.5,-499 537.99,-499 526.76,-496.69 497.75,-478 464.03,-456.27 445.19,-412.19 435.88,-382.61"/>
<polygon fill="#bbbbbb" stroke="#bbbbbb" points="439.27,-381.75 433.09,-373.14 432.56,-383.73 439.27,-381.75"/>
<text text-anchor="middle" x="1066.25" y="-492.09" font-family="Helvetica,sans-Serif" font-size="9.00">1</text>
</g>
<!-- _dicelore_coreeval&#45;&gt;_dicelore_corebuild -->
<g id="edge27" class="edge">
<title>_dicelore_coreeval&#45;&gt;_dicelore_corebuild</title>
<path fill="none" stroke="#bbbbbb" d="M600.71,-274.67C633.26,-282.96 688.98,-297.15 725.9,-306.55"/>
<polygon fill="#bbbbbb" stroke="#bbbbbb" points="724.69,-309.86 735.24,-308.93 726.42,-303.07 724.69,-309.86"/>
<text text-anchor="middle" x="689.62" y="-307.1" font-family="Helvetica,sans-Serif" font-size="9.00">3</text>
</g>
<!-- _dicelore_coreeval&#45;&gt;_dicelore_corecatalog -->
<g id="edge26" class="edge">
<title>_dicelore_coreeval&#45;&gt;_dicelore_corecatalog</title>
<path fill="none" stroke="#bbbbbb" d="M600.83,-265.02C644.17,-260.28 733.27,-251.22 809,-248 830.21,-247.1 853.89,-247.03 873.22,-247.22"/>
<polygon fill="#bbbbbb" stroke="#bbbbbb" points="873.07,-250.72 883.11,-247.34 873.16,-243.72 873.07,-250.72"/>
<text text-anchor="middle" x="764" y="-255.02" font-family="Helvetica,sans-Serif" font-size="9.00">3</text>
</g>
<!-- _dicelore_coreeval&#45;&gt;_dicelore_corestore -->
<g id="edge25" class="edge">
<title>_dicelore_coreeval&#45;&gt;_dicelore_corestore</title>
<path fill="none" stroke="#bbbbbb" d="M600.75,-262.37C617.71,-258.76 640.27,-254.02 660.25,-250 785.04,-224.92 821.73,-239.09 941.5,-196 954.34,-191.38 967.62,-184.79 979.37,-178.23"/>
<polygon fill="#bbbbbb" stroke="#bbbbbb" points="981.03,-181.31 987.94,-173.29 977.53,-175.25 981.03,-181.31"/>
<text text-anchor="middle" x="838" y="-231.51" font-family="Helvetica,sans-Serif" font-size="9.00">4</text>
</g>
<!-- _dicelore_coreexpr -->
<g id="node19" class="node">
<title>_dicelore_coreexpr</title>
<path fill="#f7f7f7" stroke="#cccccc" d="M1425.5,-234.25C1425.5,-234.25 1395.5,-234.25 1395.5,-234.25 1389.5,-234.25 1383.5,-228.25 1383.5,-222.25 1383.5,-222.25 1383.5,-209.75 1383.5,-209.75 1383.5,-203.75 1389.5,-197.75 1395.5,-197.75 1395.5,-197.75 1425.5,-197.75 1425.5,-197.75 1431.5,-197.75 1437.5,-203.75 1437.5,-209.75 1437.5,-209.75 1437.5,-222.25 1437.5,-222.25 1437.5,-228.25 1431.5,-234.25 1425.5,-234.25"/>
<text text-anchor="middle" x="1410.5" y="-219.8" font-family="Helvetica,sans-Serif" font-size="11.00">expr</text>
<text text-anchor="middle" x="1410.5" y="-206.3" font-family="Helvetica,sans-Serif" font-size="11.00">3 文件</text>
</g>
<!-- _dicelore_coreexpr&#45;&gt;_dicelore_core_root_ -->
<g id="edge29" class="edge">
<title>_dicelore_coreexpr&#45;&gt;_dicelore_core_root_</title>
<path fill="none" stroke="#bbbbbb" d="M1396.9,-234.38C1392.4,-241.32 1387.47,-249.37 1383.5,-257 1346.36,-328.32 1394.29,-424 1313.88,-424 1016.38,-424 1016.38,-424 1016.38,-424 937.26,-424 918.11,-439 839,-439 572.5,-439 572.5,-439 572.5,-439 525.41,-439 480.32,-404.77 453.45,-379.5"/>
<polygon fill="#bbbbbb" stroke="#bbbbbb" points="456.08,-377.17 446.47,-372.72 451.2,-382.19 456.08,-377.17"/>
<text text-anchor="middle" x="1017.38" y="-427.24" font-family="Helvetica,sans-Serif" font-size="9.00">2</text>
</g>
<!-- _dicelore_coreexpr&#45;&gt;_dicelore_coredice -->
<g id="edge28" class="edge">
<title>_dicelore_coreexpr&#45;&gt;_dicelore_coredice</title>
<path fill="none" stroke="#bbbbbb" d="M1437.93,-227.25C1447.53,-231.33 1458.54,-236.02 1468.86,-240.41"/>
<polygon fill="#bbbbbb" stroke="#bbbbbb" points="1467.3,-243.55 1477.87,-244.24 1470.04,-237.11 1467.3,-243.55"/>
<text text-anchor="middle" x="1458.5" y="-239.9" font-family="Helvetica,sans-Serif" font-size="9.00">1</text>
</g>
<!-- _dicelore_coreexpr&#45;&gt;_dicelore_corestore -->
<g id="edge30" class="edge">
<title>_dicelore_coreexpr&#45;&gt;_dicelore_corestore</title>
<path fill="none" stroke="#bbbbbb" d="M1383.25,-210.01C1350.41,-202.66 1292.38,-190.14 1242.25,-181.75 1199.04,-174.52 1188,-174.25 1144.5,-169 1115.04,-165.44 1081.68,-161.76 1056.66,-159.06"/>
<polygon fill="#bbbbbb" stroke="#bbbbbb" points="1057.28,-155.6 1046.96,-158.02 1056.53,-162.56 1057.28,-155.6"/>
<text text-anchor="middle" x="1214.38" y="-184.45" font-family="Helvetica,sans-Serif" font-size="9.00">2</text>
</g>
<!-- _dicelore_coremcp&#45;&gt;_dicelore_core_root_ -->
<g id="edge39" class="edge">
<title>_dicelore_coremcp&#45;&gt;_dicelore_core_root_</title>
<path fill="none" stroke="#bbbbbb" d="M1200.12,-287.68C1187.69,-303.63 1167.6,-325.71 1144.5,-337 1019.16,-398.24 978.5,-409 839,-409 572.5,-409 572.5,-409 572.5,-409 533.74,-409 492.85,-391.21 464.54,-375.69"/>
<polygon fill="#bbbbbb" stroke="#bbbbbb" points="466.45,-372.75 456.03,-370.85 463,-378.83 466.45,-372.75"/>
<text text-anchor="middle" x="913.25" y="-411.17" font-family="Helvetica,sans-Serif" font-size="9.00">6</text>
</g>
<!-- _dicelore_coremcp&#45;&gt;_dicelore_coreresolve -->
<g id="edge42" class="edge">
<title>_dicelore_coremcp&#45;&gt;_dicelore_coreresolve</title>
<path fill="none" stroke="#bbbbbb" d="M1242.51,-269.28C1251.99,-269.38 1262.82,-269.49 1273.06,-269.6"/>
<polygon fill="#bbbbbb" stroke="#bbbbbb" points="1272.72,-273.09 1282.76,-269.7 1272.79,-266.09 1272.72,-273.09"/>
<text text-anchor="middle" x="1263.25" y="-272.2" font-family="Helvetica,sans-Serif" font-size="9.00">3</text>
</g>
<!-- _dicelore_coremcp&#45;&gt;_dicelore_coresession -->
<g id="edge41" class="edge">
<title>_dicelore_coremcp&#45;&gt;_dicelore_coresession</title>
<path fill="none" stroke="#bbbbbb" d="M1223.27,-250.59C1240.02,-211.53 1279.24,-120.1 1299.41,-73.07"/>
<polygon fill="#bbbbbb" stroke="#bbbbbb" points="1302.55,-74.63 1303.27,-64.06 1296.11,-71.87 1302.55,-74.63"/>
<text text-anchor="middle" x="1263.25" y="-165.95" font-family="Helvetica,sans-Serif" font-size="9.00">2</text>
</g>
<!-- _dicelore_coremcp&#45;&gt;_dicelore_corestore -->
<g id="edge40" class="edge">
<title>_dicelore_coremcp&#45;&gt;_dicelore_corestore</title>
<path fill="none" stroke="#bbbbbb" d="M1186.06,-250.26C1180.31,-246.46 1174.25,-242.54 1168.5,-239 1130.68,-215.73 1086.14,-191.16 1055.46,-174.64"/>
<polygon fill="#bbbbbb" stroke="#bbbbbb" points="1057.41,-171.72 1046.94,-170.08 1054.1,-177.89 1057.41,-171.72"/>
<text text-anchor="middle" x="1115.88" y="-226.92" font-family="Helvetica,sans-Serif" font-size="9.00">24</text>
</g>
<!-- _dicelore_coremcp&#45;&gt;_dicelore_coretoolgen -->
<g id="edge43" class="edge">
<title>_dicelore_coremcp&#45;&gt;_dicelore_coretoolgen</title>
<path fill="none" stroke="#bbbbbb" d="M1186.19,-280.55C1176.59,-284.63 1165.61,-289.29 1155.26,-293.69"/>
<polygon fill="#bbbbbb" stroke="#bbbbbb" points="1154.01,-290.42 1146.18,-297.55 1156.75,-296.86 1154.01,-290.42"/>
<text text-anchor="middle" x="1165.5" y="-292.2" font-family="Helvetica,sans-Serif" font-size="9.00">4</text>
</g>
<!-- _dicelore_corepresent&#45;&gt;_dicelore_corestore -->
<g id="edge44" class="edge">
<title>_dicelore_corepresent&#45;&gt;_dicelore_corestore</title>
<path fill="none" stroke="#bbbbbb" d="M867.3,-145.23C887.9,-145.53 916.45,-146.2 941.5,-147.75 953.33,-148.48 966.18,-149.6 977.84,-150.75"/>
<polygon fill="#bbbbbb" stroke="#bbbbbb" points="977.22,-154.2 987.52,-151.74 977.93,-147.24 977.22,-154.2"/>
<text text-anchor="middle" x="913.25" y="-150.45" font-family="Helvetica,sans-Serif" font-size="9.00">7</text>
</g>
<!-- _dicelore_coreresolve&#45;&gt;_dicelore_core_root_ -->
<g id="edge47" class="edge">
<title>_dicelore_coreresolve&#45;&gt;_dicelore_core_root_</title>
<path fill="none" stroke="#bbbbbb" d="M1306.05,-288.56C1296.63,-315.93 1275.66,-367.28 1242.25,-399 1176,-461.9 930.36,-479 839,-479 572.5,-479 572.5,-479 572.5,-479 530.29,-479 510.03,-482.34 481.75,-451 463.37,-430.63 448.96,-402.82 439.74,-382.03"/>
<polygon fill="#bbbbbb" stroke="#bbbbbb" points="443.03,-380.8 435.88,-372.98 436.59,-383.55 443.03,-380.8"/>
<text text-anchor="middle" x="965.5" y="-475.68" font-family="Helvetica,sans-Serif" font-size="9.00">2</text>
</g>
<!-- _dicelore_coreresolve&#45;&gt;_dicelore_coredice -->
<g id="edge46" class="edge">
<title>_dicelore_coreresolve&#45;&gt;_dicelore_coredice</title>
<path fill="none" stroke="#bbbbbb" d="M1341.33,-267.99C1374.48,-265.57 1430.41,-261.49 1467.64,-258.77"/>
<polygon fill="#bbbbbb" stroke="#bbbbbb" points="1467.79,-262.26 1477.51,-258.04 1467.28,-255.28 1467.79,-262.26"/>
<text text-anchor="middle" x="1410.5" y="-267.55" font-family="Helvetica,sans-Serif" font-size="9.00">3</text>
</g>
<!-- _dicelore_coreresolve&#45;&gt;_dicelore_coreexpr -->
<g id="edge48" class="edge">
<title>_dicelore_coreresolve&#45;&gt;_dicelore_coreexpr</title>
<path fill="none" stroke="#bbbbbb" d="M1341.53,-254.38C1351.48,-248.76 1362.86,-242.34 1373.42,-236.38"/>
<polygon fill="#bbbbbb" stroke="#bbbbbb" points="1374.91,-239.55 1381.9,-231.59 1371.47,-233.46 1374.91,-239.55"/>
<text text-anchor="middle" x="1362.5" y="-245.7" font-family="Helvetica,sans-Serif" font-size="9.00">1</text>
</g>
<!-- _dicelore_coreresolve&#45;&gt;_dicelore_corestore -->
<g id="edge45" class="edge">
<title>_dicelore_coreresolve&#45;&gt;_dicelore_corestore</title>
<path fill="none" stroke="#bbbbbb" d="M1300.28,-251.44C1292.13,-239.87 1280.2,-225.6 1266.25,-217 1266.11,-216.91 1125.63,-181.8 1056.25,-164.46"/>
<polygon fill="#bbbbbb" stroke="#bbbbbb" points="1057.37,-161.14 1046.82,-162.11 1055.68,-167.93 1057.37,-161.14"/>
<text text-anchor="middle" x="1165.5" y="-195.05" font-family="Helvetica,sans-Serif" font-size="9.00">5</text>
</g>
<!-- _dicelore_coresession&#45;&gt;_dicelore_corestore -->
<g id="edge49" class="edge">
<title>_dicelore_coresession&#45;&gt;_dicelore_corestore</title>
<path fill="none" stroke="#bbbbbb" d="M1299.23,-62.65C1291.06,-73.22 1279.51,-85.75 1266.25,-93 1226.02,-115.01 1106.41,-114.52 1063.25,-130 1060.86,-130.86 1058.45,-131.83 1056.05,-132.89"/>
<polygon fill="#bbbbbb" stroke="#bbbbbb" points="1054.53,-129.73 1047.07,-137.26 1057.6,-136.03 1054.53,-129.73"/>
<text text-anchor="middle" x="1165.5" y="-116.86" font-family="Helvetica,sans-Serif" font-size="9.00">1</text>
</g>
<!-- _dicelore_corestore&#45;&gt;_dicelore_core_root_ -->
<g id="edge52" class="edge">
<title>_dicelore_corestore&#45;&gt;_dicelore_core_root_</title>
<path fill="none" stroke="#bbbbbb" d="M1008.82,-136.48C1001.51,-120.82 988.96,-98.92 971.5,-86 932.65,-57.26 914.85,-62.73 867,-56 704.43,-33.13 657.88,-29.81 497.75,-66 490.18,-67.71 486.23,-66.66 481.75,-73 449.24,-119.05 490.56,-276.42 463.75,-326 463.25,-326.92 462.7,-327.83 462.12,-328.7"/>
<polygon fill="#bbbbbb" stroke="#bbbbbb" points="459.56,-326.31 455.58,-336.12 464.82,-330.94 459.56,-326.31"/>
<text text-anchor="middle" x="764" y="-48.53" font-family="Helvetica,sans-Serif" font-size="9.00">3</text>
</g>
<!-- _dicelore_corestore&#45;&gt;_dicelore_coredice -->
<g id="edge51" class="edge">
<title>_dicelore_corestore&#45;&gt;_dicelore_coredice</title>
<path fill="none" stroke="#bbbbbb" d="M1040.29,-136.33C1053.07,-126.79 1070.02,-116.31 1087.25,-112 1197.15,-84.51 1235.49,-90.06 1341.5,-130 1388.36,-147.66 1398.08,-158.12 1437.5,-189 1453.02,-201.16 1468.8,-216.48 1481.24,-229.4"/>
<polygon fill="#bbbbbb" stroke="#bbbbbb" points="1478.44,-231.54 1487.86,-236.39 1483.53,-226.73 1478.44,-231.54"/>
<text text-anchor="middle" x="1263.25" y="-107.45" font-family="Helvetica,sans-Serif" font-size="9.00">3</text>
</g>
<!-- _dicelore_corestore&#45;&gt;_dicelore_coreexpr -->
<g id="edge50" class="edge">
<title>_dicelore_corestore&#45;&gt;_dicelore_coreexpr</title>
<path fill="none" stroke="#bbbbbb" d="M1045.52,-146.29C1064.69,-140.9 1091.09,-135 1114.88,-135 1114.88,-135 1114.88,-135 1313.88,-135 1347.72,-135 1375.74,-164.91 1392.52,-188.38"/>
<polygon fill="#bbbbbb" stroke="#bbbbbb" points="1389.44,-190.07 1397.95,-196.37 1395.22,-186.13 1389.44,-190.07"/>
<text text-anchor="middle" x="1214.38" y="-137.7" font-family="Helvetica,sans-Serif" font-size="9.00">4</text>
</g>
<!-- _dicelore_corestore&#45;&gt;_dicelore_coretoolgen -->
<g id="edge53" class="edge">
<title>_dicelore_corestore&#45;&gt;_dicelore_coretoolgen</title>
<path fill="none" stroke="#bbbbbb" d="M1045.62,-171.52C1054.07,-177.67 1062.83,-185.25 1069.25,-193.75 1079.91,-207.86 1095.51,-251.21 1105.43,-280.79"/>
<polygon fill="#bbbbbb" stroke="#bbbbbb" points="1101.99,-281.53 1108.46,-289.93 1108.64,-279.33 1101.99,-281.53"/>
<text text-anchor="middle" x="1066.25" y="-196.45" font-family="Helvetica,sans-Serif" font-size="9.00">1</text>
</g>
<!-- _dicelore_coretoolgen&#45;&gt;_dicelore_core_root_ -->
<g id="edge55" class="edge">
<title>_dicelore_coretoolgen&#45;&gt;_dicelore_core_root_</title>
<path fill="none" stroke="#bbbbbb" d="M1086.89,-317.3C1052.83,-325.81 993.4,-339.4 941.5,-345 849.35,-354.93 568.08,-354.01 465.88,-353.31"/>
<polygon fill="#bbbbbb" stroke="#bbbbbb" points="466.14,-349.81 456.11,-353.24 466.09,-356.81 466.14,-349.81"/>
<text text-anchor="middle" x="838" y="-354.15" font-family="Helvetica,sans-Serif" font-size="9.00">5</text>
</g>
<!-- _dicelore_coretoolgen&#45;&gt;_dicelore_coremcp -->
<g id="edge56" class="edge">
<title>_dicelore_coretoolgen&#45;&gt;_dicelore_coremcp</title>
<path fill="none" stroke="#bbbbbb" d="M1144.9,-309.53C1152.76,-308.66 1161.15,-307.01 1168.5,-304 1174.33,-301.61 1180.04,-298.24 1185.32,-294.53"/>
<polygon fill="#bbbbbb" stroke="#bbbbbb" points="1187.33,-297.4 1193.12,-288.53 1183.06,-291.85 1187.33,-297.4"/>
<text text-anchor="middle" x="1165.5" y="-308.59" font-family="Helvetica,sans-Serif" font-size="9.00">1</text>
</g>
<!-- _dicelore_coretoolgen&#45;&gt;_dicelore_corestore -->
<g id="edge54" class="edge">
<title>_dicelore_coretoolgen&#45;&gt;_dicelore_corestore</title>
<path fill="none" stroke="#bbbbbb" d="M1103.74,-291.37C1094.58,-276.1 1081.19,-253.95 1069.25,-234.75 1058.51,-217.48 1046.25,-198.25 1036.46,-183"/>
<polygon fill="#bbbbbb" stroke="#bbbbbb" points="1039.59,-181.41 1031.24,-174.89 1033.71,-185.19 1039.59,-181.41"/>
<text text-anchor="middle" x="1066.25" y="-237.45" font-family="Helvetica,sans-Serif" font-size="9.00">9</text>
</g>
<!-- _dicelore_shared_root_ -->
<g id="node27" class="node">
<title>_dicelore_shared_root_</title>
<path fill="#f7f7f7" stroke="#cccccc" d="M588.5,-807.25C588.5,-807.25 558.5,-807.25 558.5,-807.25 552.5,-807.25 546.5,-801.25 546.5,-795.25 546.5,-795.25 546.5,-782.75 546.5,-782.75 546.5,-776.75 552.5,-770.75 558.5,-770.75 558.5,-770.75 588.5,-770.75 588.5,-770.75 594.5,-770.75 600.5,-776.75 600.5,-782.75 600.5,-782.75 600.5,-795.25 600.5,-795.25 600.5,-801.25 594.5,-807.25 588.5,-807.25"/>
<text text-anchor="middle" x="573.5" y="-792.8" font-family="Helvetica,sans-Serif" font-size="11.00">(root)</text>
<text text-anchor="middle" x="573.5" y="-779.3" font-family="Helvetica,sans-Serif" font-size="11.00">6 文件</text>
</g>
</g>
</svg>
